<svg width="149" height="35" viewBox="0 0 149 35" fill="none" xmlns="http://www.w3.org/2000/svg">
<g clip-path="url(#clip0_46_1846)">
<mask id="mask0_46_1846" style="mask-type:luminance" maskUnits="userSpaceOnUse" x="0" y="0" width="47" height="35">
<path d="M46.6226 0H0V34.9974H46.6226V0Z" fill="white"/>
</mask>
<g mask="url(#mask0_46_1846)">
<path d="M34.5419 34.9179H41.522V16.9691L34.5419 11.6623V34.9153V34.9179ZM39.7014 17.8588V25.4867V33.1146H36.3651V15.3219L39.7014 17.8588Z" fill="white"/>
<path d="M4.9884 16.9373L11.9684 11.6331V34.8861H4.9884V16.9373Z" fill="white"/>
<path d="M42.078 34.9073H46.5451V23.4225L42.078 20.0276V34.9073ZM44.7219 24.3123V33.104H43.8985V23.6873L44.7219 24.3123Z" fill="white"/>
<path d="M0 23.4013L4.46711 20.0064V34.8861H0V23.4013Z" fill="white"/>
<path d="M23.5172 34.8835H33.9886V7.9602L23.5172 0V34.8835ZM32.1654 8.84732V33.0801H25.3377V3.65703L32.1654 8.84732Z" fill="white"/>
<path d="M12.4897 7.9602L22.9611 0V34.8835H12.4897V7.9602Z" fill="white"/>
</g>
<mask id="mask1_46_1846" style="mask-type:luminance" maskUnits="userSpaceOnUse" x="55" y="0" width="94" height="35">
<path d="M149 0H55.9312V34.9974H149V0Z" fill="white"/>
</mask>
<g mask="url(#mask1_46_1846)">
<path d="M67.2447 21.8469C53.1135 21.7886 53.1723 1.49088 67.2447 1.43262H84.0571V9.4246H79.435V5.25383H67.3035C60.1203 5.25383 60.1791 18.0283 67.3035 18.0283H84.8217V21.8786H67.2447V21.8495V21.8469ZM113.851 18.0283V21.8495H87.2063V18.0283L105.283 5.25383H87.9121V1.43262H113.116V5.25383L95.1568 18.0283H113.854H113.851ZM123.173 17.3848L120.436 21.876H115.078L127.972 1.43262H135.981L148.877 21.876H143.52L140.782 17.3848H123.176H123.173ZM131.653 3.44518L125.499 13.5662H138.454L132.3 3.44518H131.653Z" fill="white"/>
<path d="M62.0477 34.4307H56.669V28.8379H61.8633C63.911 28.8379 64.5179 30.8663 62.8711 31.4436V31.4833C64.7504 32.0262 64.1784 34.4307 62.0477 34.4307ZM61.8633 29.8839H57.9362V31.0252H61.8633C62.7267 31.0252 62.7829 29.8839 61.8633 29.8839ZM57.9335 32.0738V33.3847H62.0477C62.9673 33.3847 62.9192 32.0738 62.0477 32.0738H57.9335ZM67.6483 34.4386V34.4227L67.6323 34.4386C63.7453 34.4386 63.7533 28.8379 67.6323 28.8379L67.6483 28.8458V28.8379H70.6398C74.4947 28.8537 74.5107 34.4148 70.6398 34.4307V34.4386H67.6483ZM70.6237 29.8839H67.6323C65.6647 29.8839 65.6808 33.3847 67.6323 33.3847L67.6483 33.4005V33.3847H70.6237C72.5833 33.3847 72.5913 29.8839 70.6237 29.8839ZM82.1163 31.9388C82.0361 33.6415 80.1327 34.4942 78.2293 34.4942C76.3259 34.4942 74.4225 33.6468 74.3503 31.9388V28.8379H75.6175V31.8249C75.6175 32.9027 76.9247 33.4403 78.232 33.4403C79.5392 33.4403 80.8438 32.9053 80.8438 31.8249H80.8518V28.8379H82.119V31.9388H82.1163ZM87.1422 34.4307H84.9554L82.6884 28.8379H84.116L86.0514 33.8084H86.1557L87.9789 28.8379H90.2138L92.037 33.8084H92.1413L94.0767 28.8379H95.5043L93.2373 34.4307H91.0505L89.1471 29.3489H89.0429L87.1395 34.4307H87.1422ZM101.591 34.4307H96.2127V28.8379H101.407C103.455 28.8379 104.062 30.8663 102.415 31.4436V31.4833C104.294 32.0262 103.722 34.4307 101.591 34.4307ZM101.404 29.8839H97.4772V31.0252H101.404C102.268 31.0252 102.324 29.8839 101.404 29.8839ZM97.4772 32.0738V33.3847H101.591C102.511 33.3847 102.463 32.0738 101.591 32.0738H97.4772ZM111.504 34.4307H104.527V28.8379H111.504V29.8839H105.794V31.1152H110.828V32.1612H105.794V33.3847H111.504V34.4307ZM116.952 34.4307H112.475V28.8379H116.952C120.807 28.8537 120.823 34.4227 116.952 34.4307ZM113.742 29.8839V33.3847H116.936C118.896 33.3847 118.904 29.8839 116.936 29.8839H113.742ZM124.069 32.3307H122.069V34.4333H120.802V28.8405H126.004C128.867 28.8405 128.883 32.3307 126.004 32.3307L125.996 32.3228V32.3307H125.544L126.189 33.3847H128.204V34.4307H125.341L124.066 32.3281L124.069 32.3307ZM122.069 31.2821H125.996V31.29L126.004 31.2821C126.996 31.2821 127.004 29.8839 126.004 29.8839H122.069V31.2821ZM133.449 34.4386H128.907V33.3847H130.543V29.8839H128.907V28.8379H133.449V29.8839H131.813V33.3847H133.449V34.4386ZM140.806 32.2645C140.806 33.7501 139.071 34.4942 137.339 34.4942C135.607 34.4942 133.888 33.7501 133.888 32.2645L133.904 32.2486H133.888V31.5866H135.155V32.2486H135.139L135.155 32.2645C135.155 33.0483 136.251 33.4376 137.35 33.4376C138.448 33.4376 139.537 33.0457 139.537 32.2645L139.553 32.2486H139.545V29.8839H135.97V28.8379H140.809V32.2486H140.793L140.809 32.2645H140.806ZM143.186 32.3704V34.4307H141.918V28.8379H148.896V29.8839H143.186V31.3218H148.219V32.3678H143.186V32.3704Z" fill="white"/>
</g>
</g>
<defs>
<clipPath id="clip0_46_1846">
<rect width="149" height="35" fill="white"/>
</clipPath>
</defs>
</svg>
