<svg width="454" height="330" viewBox="0 0 454 330" fill="none" xmlns="http://www.w3.org/2000/svg">
<path d="M337.131 329.048H405.092V159.908L337.131 109.899V329.023V329.048ZM387.367 168.292V240.173V312.054H354.883V144.386L387.367 168.292Z" fill="white" fill-opacity="0.05"/>
<path d="M49.3854 159.607L117.346 109.623V328.747H49.3854V159.607Z" fill="white" fill-opacity="0.05"/>
<path d="M410.506 328.946H454V220.719L410.506 188.728V328.946ZM436.249 229.104V311.952H428.232V223.214L436.249 229.104Z" fill="white" fill-opacity="0.05"/>
<path d="M0.815918 220.52L44.3097 188.528V328.747H0.815918V220.52Z" fill="white" fill-opacity="0.05"/>
<path d="M229.79 328.723H331.744V75.0126L229.79 0V328.723ZM313.992 83.3723V311.729H247.515V34.4619L313.992 83.3723Z" fill="white" fill-opacity="0.05"/>
<path d="M122.421 75.0126L224.375 0V328.723H122.421V75.0126Z" fill="white" fill-opacity="0.05"/>
</svg>
